<svg version="1.1" id="Layer_1" xmlns="http://www.w3.org/2000/svg" xmlns:xlink="http://www.w3.org/1999/xlink" x="0px" y="0px"
	 width="100%" viewBox="0 0 512 512" enable-background="new 0 0 512 512" xml:space="preserve">
<path fill="#1DA0C3" opacity="1.000000" stroke="none" 
	d="
M291.000000,513.000000 
	C194.023544,513.000000 97.547081,513.000000 1.035313,513.000000 
	C1.035313,342.398529 1.035313,171.797028 1.035313,1.097768 
	C171.559799,1.097768 342.119690,1.097768 512.839783,1.097768 
	C512.839783,171.666550 512.839783,342.333252 512.839783,513.000000 
	C439.130341,513.000000 365.315155,513.000000 291.000000,513.000000 
M272.753540,188.479904 
	C272.850494,190.467361 273.031250,192.454803 273.032043,194.442291 
	C273.048401,236.737442 273.044556,279.032593 273.044647,321.327759 
	C273.044647,323.274963 273.044647,325.222168 273.044647,327.421692 
	C280.168884,327.421692 286.727997,327.421692 294.063721,327.421692 
	C294.063721,323.187622 294.063721,319.251282 294.063721,315.332977 
	C297.632141,318.667633 300.420868,322.120483 303.954803,324.436066 
	C324.062775,337.611664 353.066162,330.162292 363.747223,308.650940 
	C373.800507,288.403778 373.704132,267.476074 364.573883,246.897186 
	C359.709717,235.933701 351.247681,228.254196 339.503021,224.845505 
	C322.317963,219.857864 307.353424,223.110565 294.898254,238.505142 
	C294.898254,220.466248 294.898254,203.639313 294.898254,186.807175 
	C286.827820,186.807175 279.391754,186.807175 271.083374,186.461685 
	C218.420151,186.425903 165.756790,186.350067 113.094246,186.522049 
	C111.264908,186.528015 108.703255,188.603287 107.726952,190.392792 
	C83.571632,234.667938 59.582230,279.033600 35.580853,323.392670 
	C35.000591,324.465118 34.620255,325.645721 34.056217,326.991760 
	C35.220753,327.109314 35.877724,327.233551 36.534718,327.233704 
	C88.865997,327.245667 141.197357,327.215912 193.528397,327.329468 
	C196.704773,327.336365 197.822235,325.692322 199.063812,323.390442 
	C212.496994,298.485046 226.014191,273.625000 239.448044,248.719986 
	C250.345917,228.516388 261.161530,208.268417 272.753540,188.479904 
M436.094818,311.094543 
	C422.400635,315.151093 411.360016,310.534546 405.798035,297.461060 
	C399.718567,283.171356 400.098389,268.526794 406.279327,254.315948 
	C409.604218,246.671555 415.795776,242.023529 424.242432,240.887695 
	C438.729767,238.939560 446.425720,244.097977 451.719879,259.245544 
	C458.717041,259.245544 465.736328,259.245544 473.052429,259.245544 
	C472.175934,249.521317 468.736267,241.543869 462.257172,234.765518 
	C446.675873,218.464569 404.386627,215.657059 388.099609,244.248718 
	C381.622559,255.619110 379.663574,267.896759 379.967590,280.772400 
	C380.732239,313.158905 402.272858,332.664734 434.482239,330.008881 
	C455.328430,328.289978 473.231110,309.248566 472.471405,289.422852 
	C465.544067,289.422852 458.611450,289.422852 451.462250,289.422852 
	C449.574066,298.720734 446.008118,306.742188 436.094818,311.094543 
z"/>
<path fill="#FFFFFF" opacity="1.000000" stroke="none" 
	d="
M272.013641,188.040131 
	C261.161530,208.268417 250.345917,228.516388 239.448044,248.719986 
	C226.014191,273.625000 212.496994,298.485046 199.063812,323.390442 
	C197.822235,325.692322 196.704773,327.336365 193.528397,327.329468 
	C141.197357,327.215912 88.865997,327.245667 36.534718,327.233704 
	C35.877724,327.233551 35.220753,327.109314 34.056217,326.991760 
	C34.620255,325.645721 35.000591,324.465118 35.580853,323.392670 
	C59.582230,279.033600 83.571632,234.667938 107.726952,190.392792 
	C108.703255,188.603287 111.264908,186.528015 113.094246,186.522049 
	C165.756790,186.350067 218.420151,186.425903 271.521851,186.840179 
	C271.969208,187.493073 271.986969,187.766891 272.013641,188.040131 
z"/>
<path fill="#FAFDFE" opacity="1.000000" stroke="none" 
	d="
M272.383606,188.260010 
	C271.986969,187.766891 271.969208,187.493073 271.958008,187.012939 
	C279.391754,186.807175 286.827820,186.807175 294.898254,186.807175 
	C294.898254,203.639313 294.898254,220.466248 294.898254,238.505142 
	C307.353424,223.110565 322.317963,219.857864 339.503021,224.845505 
	C351.247681,228.254196 359.709717,235.933701 364.573883,246.897186 
	C373.704132,267.476074 373.800507,288.403778 363.747223,308.650940 
	C353.066162,330.162292 324.062775,337.611664 303.954803,324.436066 
	C300.420868,322.120483 297.632141,318.667633 294.063721,315.332977 
	C294.063721,319.251282 294.063721,323.187622 294.063721,327.421692 
	C286.727997,327.421692 280.168884,327.421692 273.044647,327.421692 
	C273.044647,325.222168 273.044647,323.274963 273.044647,321.327759 
	C273.044556,279.032593 273.048401,236.737442 273.032043,194.442291 
	C273.031250,192.454803 272.850494,190.467361 272.383606,188.260010 
M337.909485,246.559326 
	C325.939819,237.139313 309.760986,238.794647 301.188568,250.316422 
	C291.434235,263.426758 291.895081,290.352631 302.092957,303.157257 
	C312.288696,315.959198 332.391235,315.765472 341.904297,302.773621 
	C352.824158,287.860352 351.132477,260.667053 337.909485,246.559326 
z"/>
<path fill="#FCFEFE" opacity="1.000000" stroke="none" 
	d="
M436.479309,310.978149 
	C446.008118,306.742188 449.574066,298.720734 451.462250,289.422852 
	C458.611450,289.422852 465.544067,289.422852 472.471405,289.422852 
	C473.231110,309.248566 455.328430,328.289978 434.482239,330.008881 
	C402.272858,332.664734 380.732239,313.158905 379.967590,280.772400 
	C379.663574,267.896759 381.622559,255.619110 388.099609,244.248718 
	C404.386627,215.657059 446.675873,218.464569 462.257172,234.765518 
	C468.736267,241.543869 472.175934,249.521317 473.052429,259.245544 
	C465.736328,259.245544 458.717041,259.245544 451.719879,259.245544 
	C446.425720,244.097977 438.729767,238.939560 424.242432,240.887695 
	C415.795776,242.023529 409.604218,246.671555 406.279327,254.315948 
	C400.098389,268.526794 399.718567,283.171356 405.798035,297.461060 
	C411.360016,310.534546 422.400635,315.151093 436.479309,310.978149 
z"/>
<path fill="#1FA1C3" opacity="1.000000" stroke="none" 
	d="
M338.173645,246.805786 
	C351.132477,260.667053 352.824158,287.860352 341.904297,302.773621 
	C332.391235,315.765472 312.288696,315.959198 302.092957,303.157257 
	C291.895081,290.352631 291.434235,263.426758 301.188568,250.316422 
	C309.760986,238.794647 325.939819,237.139313 338.173645,246.805786 
z"/>
</svg>